<svg width="56" height="58" viewBox="0 0 56 58" fill="none" xmlns="http://www.w3.org/2000/svg">
<mask id="mask0_1_2335" style="mask-type:luminance" maskUnits="userSpaceOnUse" x="0" y="1" width="56" height="57">
<path d="M0 1.70306H56V57.9455H0V1.70306Z" fill="white"/>
</mask>
<g mask="url(#mask0_1_2335)">
<path d="M23.38 18.7357C23.4698 18.1967 23.5153 17.6454 23.5165 17.0819C23.5164 15.1674 22.9719 13.2927 21.9471 11.6784C20.9223 10.0641 19.4598 8.77736 17.7316 7.96948C16.0033 7.1616 14.0814 6.8662 12.1917 7.11805C10.302 7.3699 8.52324 8.15852 7.06464 9.39112C5.60605 10.6237 4.52828 12.2491 3.95814 14.0759C3.38799 15.9028 3.34919 17.8552 3.84628 19.7034C4.34337 21.5517 5.35568 23.2189 6.76413 24.509C8.17258 25.7991 9.91859 26.6584 11.7968 26.9858C12.2168 27.0596 12.4338 27.5658 12.173 27.905C9.07725 31.9545 7.05425 36.3959 7.05425 39.5736C7.05425 47.4545 14.1645 52.6183 19.4145 52.6183C23.3643 52.6183 25.137 51.9205 26.376 51.4319C27.041 51.17 27.552 50.9697 28.1645 50.9697C28.8347 50.9697 29.3598 51.2122 30.009 51.5092C31.0538 51.9908 32.4188 52.6165 35.2188 52.6165C40.1678 52.6165 48.9177 48.8817 48.9177 39.5736C48.9177 36.4363 47.0277 31.9457 44.03 27.854C43.785 27.5183 43.9932 27.028 44.401 26.9506C46.842 26.472 49.0182 25.0978 50.5056 23.0959C51.9929 21.094 52.685 18.6076 52.4469 16.1212C52.2088 13.6348 51.0576 11.3265 49.2176 9.64593C47.3776 7.96536 44.9806 7.03292 42.4935 7.03027C41.0556 7.03003 39.6346 7.3409 38.327 7.94174C37.0195 8.54257 35.8562 9.41927 34.9163 10.5122C33.9764 11.605 33.282 12.8885 32.8803 14.2751C32.4786 15.6617 32.3791 17.119 32.5885 18.5477C31.1711 18.0246 29.6745 17.7511 28.1645 17.7392C26.5807 17.7392 24.9707 18.1012 23.38 18.7357Z" fill="url(#paint0_linear_1_2335)"/>
<path d="M23.38 18.7357C23.4698 18.1967 23.5153 17.6454 23.5165 17.0819C23.5164 15.1674 22.9719 13.2927 21.9471 11.6784C20.9223 10.0641 19.4598 8.77736 17.7316 7.96948C16.0033 7.1616 14.0814 6.8662 12.1917 7.11805C10.302 7.3699 8.52324 8.15852 7.06464 9.39112C5.60605 10.6237 4.52828 12.2491 3.95814 14.0759C3.38799 15.9028 3.34919 17.8552 3.84628 19.7034C4.34337 21.5517 5.35568 23.2189 6.76413 24.509C8.17258 25.7991 9.91859 26.6584 11.7968 26.9858C12.2168 27.0596 12.4338 27.5658 12.173 27.905C9.07725 31.9545 7.05425 36.3959 7.05425 39.5736C7.05425 47.4545 14.1645 52.6183 19.4145 52.6183C23.3643 52.6183 25.137 51.9205 26.376 51.4319C27.041 51.17 27.552 50.9697 28.1645 50.9697C28.8347 50.9697 29.3598 51.2122 30.009 51.5092C31.0538 51.9908 32.4188 52.6165 35.2188 52.6165C40.1678 52.6165 48.9177 48.8817 48.9177 39.5736C48.9177 36.4363 47.0277 31.9457 44.03 27.854C43.785 27.5183 43.9932 27.028 44.401 26.9506C46.842 26.472 49.0182 25.0978 50.5056 23.0959C51.9929 21.094 52.685 18.6076 52.4469 16.1212C52.2088 13.6348 51.0576 11.3265 49.2176 9.64593C47.3776 7.96536 44.9806 7.03292 42.4935 7.03027C41.0556 7.03003 39.6346 7.3409 38.327 7.94174C37.0195 8.54257 35.8562 9.41927 34.9163 10.5122C33.9764 11.605 33.282 12.8885 32.8803 14.2751C32.4786 15.6617 32.3791 17.119 32.5885 18.5477C31.1711 18.0246 29.6745 17.7511 28.1645 17.7392C26.5807 17.7392 24.9707 18.1012 23.38 18.7357Z" fill="url(#paint1_radial_1_2335)"/>
<path d="M23.38 18.7357C23.4698 18.1967 23.5153 17.6454 23.5165 17.0819C23.5164 15.1674 22.9719 13.2927 21.9471 11.6784C20.9223 10.0641 19.4598 8.77736 17.7316 7.96948C16.0033 7.1616 14.0814 6.8662 12.1917 7.11805C10.302 7.3699 8.52324 8.15852 7.06464 9.39112C5.60605 10.6237 4.52828 12.2491 3.95814 14.0759C3.38799 15.9028 3.34919 17.8552 3.84628 19.7034C4.34337 21.5517 5.35568 23.2189 6.76413 24.509C8.17258 25.7991 9.91859 26.6584 11.7968 26.9858C12.2168 27.0596 12.4338 27.5658 12.173 27.905C9.07725 31.9545 7.05425 36.3959 7.05425 39.5736C7.05425 47.4545 14.1645 52.6183 19.4145 52.6183C23.3643 52.6183 25.137 51.9205 26.376 51.4319C27.041 51.17 27.552 50.9697 28.1645 50.9697C28.8347 50.9697 29.3598 51.2122 30.009 51.5092C31.0538 51.9908 32.4188 52.6165 35.2188 52.6165C40.1678 52.6165 48.9177 48.8817 48.9177 39.5736C48.9177 36.4363 47.0277 31.9457 44.03 27.854C43.785 27.5183 43.9932 27.028 44.401 26.9506C46.842 26.472 49.0182 25.0978 50.5056 23.0959C51.9929 21.094 52.685 18.6076 52.4469 16.1212C52.2088 13.6348 51.0576 11.3265 49.2176 9.64593C47.3776 7.96536 44.9806 7.03292 42.4935 7.03027C41.0556 7.03003 39.6346 7.3409 38.327 7.94174C37.0195 8.54257 35.8562 9.41927 34.9163 10.5122C33.9764 11.605 33.282 12.8885 32.8803 14.2751C32.4786 15.6617 32.3791 17.119 32.5885 18.5477C31.1711 18.0246 29.6745 17.7511 28.1645 17.7392C26.5807 17.7392 24.9707 18.1012 23.38 18.7357Z" fill="url(#paint2_radial_1_2335)"/>
<path d="M23.38 18.7357C23.4698 18.1967 23.5153 17.6454 23.5165 17.0819C23.5164 15.1674 22.9719 13.2927 21.9471 11.6784C20.9223 10.0641 19.4598 8.77736 17.7316 7.96948C16.0033 7.1616 14.0814 6.8662 12.1917 7.11805C10.302 7.3699 8.52324 8.15852 7.06464 9.39112C5.60605 10.6237 4.52828 12.2491 3.95814 14.0759C3.38799 15.9028 3.34919 17.8552 3.84628 19.7034C4.34337 21.5517 5.35568 23.2189 6.76413 24.509C8.17258 25.7991 9.91859 26.6584 11.7968 26.9858C12.2168 27.0596 12.4338 27.5658 12.173 27.905C9.07725 31.9545 7.05425 36.3959 7.05425 39.5736C7.05425 47.4545 14.1645 52.6183 19.4145 52.6183C23.3643 52.6183 25.137 51.9205 26.376 51.4319C27.041 51.17 27.552 50.9697 28.1645 50.9697C28.8347 50.9697 29.3598 51.2122 30.009 51.5092C31.0538 51.9908 32.4188 52.6165 35.2188 52.6165C40.1678 52.6165 48.9177 48.8817 48.9177 39.5736C48.9177 36.4363 47.0277 31.9457 44.03 27.854C43.785 27.5183 43.9932 27.028 44.401 26.9506C46.842 26.472 49.0182 25.0978 50.5056 23.0959C51.9929 21.094 52.685 18.6076 52.4469 16.1212C52.2088 13.6348 51.0576 11.3265 49.2176 9.64593C47.3776 7.96536 44.9806 7.03292 42.4935 7.03027C41.0556 7.03003 39.6346 7.3409 38.327 7.94174C37.0195 8.54257 35.8562 9.41927 34.9163 10.5122C33.9764 11.605 33.282 12.8885 32.8803 14.2751C32.4786 15.6617 32.3791 17.119 32.5885 18.5477C31.1711 18.0246 29.6745 17.7511 28.1645 17.7392C26.5807 17.7392 24.9707 18.1012 23.38 18.7357Z" fill="url(#paint3_radial_1_2335)"/>
<path d="M23.38 18.7357C23.4698 18.1967 23.5153 17.6454 23.5165 17.0819C23.5164 15.1674 22.9719 13.2927 21.9471 11.6784C20.9223 10.0641 19.4598 8.77736 17.7316 7.96948C16.0033 7.1616 14.0814 6.8662 12.1917 7.11805C10.302 7.3699 8.52324 8.15852 7.06464 9.39112C5.60605 10.6237 4.52828 12.2491 3.95814 14.0759C3.38799 15.9028 3.34919 17.8552 3.84628 19.7034C4.34337 21.5517 5.35568 23.2189 6.76413 24.509C8.17258 25.7991 9.91859 26.6584 11.7968 26.9858C12.2168 27.0596 12.4338 27.5658 12.173 27.905C9.07725 31.9545 7.05425 36.3959 7.05425 39.5736C7.05425 47.4545 14.1645 52.6183 19.4145 52.6183C23.3643 52.6183 25.137 51.9205 26.376 51.4319C27.041 51.17 27.552 50.9697 28.1645 50.9697C28.8347 50.9697 29.3598 51.2122 30.009 51.5092C31.0538 51.9908 32.4188 52.6165 35.2188 52.6165C40.1678 52.6165 48.9177 48.8817 48.9177 39.5736C48.9177 36.4363 47.0277 31.9457 44.03 27.854C43.785 27.5183 43.9932 27.028 44.401 26.9506C46.842 26.472 49.0182 25.0978 50.5056 23.0959C51.9929 21.094 52.685 18.6076 52.4469 16.1212C52.2088 13.6348 51.0576 11.3265 49.2176 9.64593C47.3776 7.96536 44.9806 7.03292 42.4935 7.03027C41.0556 7.03003 39.6346 7.3409 38.327 7.94174C37.0195 8.54257 35.8562 9.41927 34.9163 10.5122C33.9764 11.605 33.282 12.8885 32.8803 14.2751C32.4786 15.6617 32.3791 17.119 32.5885 18.5477C31.1711 18.0246 29.6745 17.7511 28.1645 17.7392C26.5807 17.7392 24.9707 18.1012 23.38 18.7357Z" fill="url(#paint4_radial_1_2335)"/>
<path d="M23.38 18.7357C23.4698 18.1967 23.5153 17.6454 23.5165 17.0819C23.5164 15.1674 22.9719 13.2927 21.9471 11.6784C20.9223 10.0641 19.4598 8.77736 17.7316 7.96948C16.0033 7.1616 14.0814 6.8662 12.1917 7.11805C10.302 7.3699 8.52324 8.15852 7.06464 9.39112C5.60605 10.6237 4.52828 12.2491 3.95814 14.0759C3.38799 15.9028 3.34919 17.8552 3.84628 19.7034C4.34337 21.5517 5.35568 23.2189 6.76413 24.509C8.17258 25.7991 9.91859 26.6584 11.7968 26.9858C12.2168 27.0596 12.4338 27.5658 12.173 27.905C9.07725 31.9545 7.05425 36.3959 7.05425 39.5736C7.05425 47.4545 14.1645 52.6183 19.4145 52.6183C23.3643 52.6183 25.137 51.9205 26.376 51.4319C27.041 51.17 27.552 50.9697 28.1645 50.9697C28.8347 50.9697 29.3598 51.2122 30.009 51.5092C31.0538 51.9908 32.4188 52.6165 35.2188 52.6165C40.1678 52.6165 48.9177 48.8817 48.9177 39.5736C48.9177 36.4363 47.0277 31.9457 44.03 27.854C43.785 27.5183 43.9932 27.028 44.401 26.9506C46.842 26.472 49.0182 25.0978 50.5056 23.0959C51.9929 21.094 52.685 18.6076 52.4469 16.1212C52.2088 13.6348 51.0576 11.3265 49.2176 9.64593C47.3776 7.96536 44.9806 7.03292 42.4935 7.03027C41.0556 7.03003 39.6346 7.3409 38.327 7.94174C37.0195 8.54257 35.8562 9.41927 34.9163 10.5122C33.9764 11.605 33.282 12.8885 32.8803 14.2751C32.4786 15.6617 32.3791 17.119 32.5885 18.5477C31.1711 18.0246 29.6745 17.7511 28.1645 17.7392C26.5807 17.7392 24.9707 18.1012 23.38 18.7357Z" fill="url(#paint5_radial_1_2335)"/>
<path d="M23.38 18.7357C23.4698 18.1967 23.5153 17.6454 23.5165 17.0819C23.5164 15.1674 22.9719 13.2927 21.9471 11.6784C20.9223 10.0641 19.4598 8.77736 17.7316 7.96948C16.0033 7.1616 14.0814 6.8662 12.1917 7.11805C10.302 7.3699 8.52324 8.15852 7.06464 9.39112C5.60605 10.6237 4.52828 12.2491 3.95814 14.0759C3.38799 15.9028 3.34919 17.8552 3.84628 19.7034C4.34337 21.5517 5.35568 23.2189 6.76413 24.509C8.17258 25.7991 9.91859 26.6584 11.7968 26.9858C12.2168 27.0596 12.4338 27.5658 12.173 27.905C9.07725 31.9545 7.05425 36.3959 7.05425 39.5736C7.05425 47.4545 14.1645 52.6183 19.4145 52.6183C23.3643 52.6183 25.137 51.9205 26.376 51.4319C27.041 51.17 27.552 50.9697 28.1645 50.9697C28.8347 50.9697 29.3598 51.2122 30.009 51.5092C31.0538 51.9908 32.4188 52.6165 35.2188 52.6165C40.1678 52.6165 48.9177 48.8817 48.9177 39.5736C48.9177 36.4363 47.0277 31.9457 44.03 27.854C43.785 27.5183 43.9932 27.028 44.401 26.9506C46.842 26.472 49.0182 25.0978 50.5056 23.0959C51.9929 21.094 52.685 18.6076 52.4469 16.1212C52.2088 13.6348 51.0576 11.3265 49.2176 9.64593C47.3776 7.96536 44.9806 7.03292 42.4935 7.03027C41.0556 7.03003 39.6346 7.3409 38.327 7.94174C37.0195 8.54257 35.8562 9.41927 34.9163 10.5122C33.9764 11.605 33.282 12.8885 32.8803 14.2751C32.4786 15.6617 32.3791 17.119 32.5885 18.5477C31.1711 18.0246 29.6745 17.7511 28.1645 17.7392C26.5807 17.7392 24.9707 18.1012 23.38 18.7357Z" fill="url(#paint6_radial_1_2335)"/>
<path d="M23.38 18.7357C23.4698 18.1967 23.5153 17.6454 23.5165 17.0819C23.5164 15.1674 22.9719 13.2927 21.9471 11.6784C20.9223 10.0641 19.4598 8.77736 17.7316 7.96948C16.0033 7.1616 14.0814 6.8662 12.1917 7.11805C10.302 7.3699 8.52324 8.15852 7.06464 9.39112C5.60605 10.6237 4.52828 12.2491 3.95814 14.0759C3.38799 15.9028 3.34919 17.8552 3.84628 19.7034C4.34337 21.5517 5.35568 23.2189 6.76413 24.509C8.17258 25.7991 9.91859 26.6584 11.7968 26.9858C12.2168 27.0596 12.4338 27.5658 12.173 27.905C9.07725 31.9545 7.05425 36.3959 7.05425 39.5736C7.05425 47.4545 14.1645 52.6183 19.4145 52.6183C23.3643 52.6183 25.137 51.9205 26.376 51.4319C27.041 51.17 27.552 50.9697 28.1645 50.9697C28.8347 50.9697 29.3598 51.2122 30.009 51.5092C31.0538 51.9908 32.4188 52.6165 35.2188 52.6165C40.1678 52.6165 48.9177 48.8817 48.9177 39.5736C48.9177 36.4363 47.0277 31.9457 44.03 27.854C43.785 27.5183 43.9932 27.028 44.401 26.9506C46.842 26.472 49.0182 25.0978 50.5056 23.0959C51.9929 21.094 52.685 18.6076 52.4469 16.1212C52.2088 13.6348 51.0576 11.3265 49.2176 9.64593C47.3776 7.96536 44.9806 7.03292 42.4935 7.03027C41.0556 7.03003 39.6346 7.3409 38.327 7.94174C37.0195 8.54257 35.8562 9.41927 34.9163 10.5122C33.9764 11.605 33.282 12.8885 32.8803 14.2751C32.4786 15.6617 32.3791 17.119 32.5885 18.5477C31.1711 18.0246 29.6745 17.7511 28.1645 17.7392C26.5807 17.7392 24.9707 18.1012 23.38 18.7357Z" fill="url(#paint7_radial_1_2335)"/>
<path d="M23.38 18.7357C23.4698 18.1967 23.5153 17.6454 23.5165 17.0819C23.5164 15.1674 22.9719 13.2927 21.9471 11.6784C20.9223 10.0641 19.4598 8.77736 17.7316 7.96948C16.0033 7.1616 14.0814 6.8662 12.1917 7.11805C10.302 7.3699 8.52324 8.15852 7.06464 9.39112C5.60605 10.6237 4.52828 12.2491 3.95814 14.0759C3.38799 15.9028 3.34919 17.8552 3.84628 19.7034C4.34337 21.5517 5.35568 23.2189 6.76413 24.509C8.17258 25.7991 9.91859 26.6584 11.7968 26.9858C12.2168 27.0596 12.4338 27.5658 12.173 27.905C9.07725 31.9545 7.05425 36.3959 7.05425 39.5736C7.05425 47.4545 14.1645 52.6183 19.4145 52.6183C23.3643 52.6183 25.137 51.9205 26.376 51.4319C27.041 51.17 27.552 50.9697 28.1645 50.9697C28.8347 50.9697 29.3598 51.2122 30.009 51.5092C31.0538 51.9908 32.4188 52.6165 35.2188 52.6165C40.1678 52.6165 48.9177 48.8817 48.9177 39.5736C48.9177 36.4363 47.0277 31.9457 44.03 27.854C43.785 27.5183 43.9932 27.028 44.401 26.9506C46.842 26.472 49.0182 25.0978 50.5056 23.0959C51.9929 21.094 52.685 18.6076 52.4469 16.1212C52.2088 13.6348 51.0576 11.3265 49.2176 9.64593C47.3776 7.96536 44.9806 7.03292 42.4935 7.03027C41.0556 7.03003 39.6346 7.3409 38.327 7.94174C37.0195 8.54257 35.8562 9.41927 34.9163 10.5122C33.9764 11.605 33.282 12.8885 32.8803 14.2751C32.4786 15.6617 32.3791 17.119 32.5885 18.5477C31.1711 18.0246 29.6745 17.7511 28.1645 17.7392C26.5807 17.7392 24.9707 18.1012 23.38 18.7357Z" fill="url(#paint8_radial_1_2335)"/>
<path d="M23.38 18.7357C23.4698 18.1967 23.5153 17.6454 23.5165 17.0819C23.5164 15.1674 22.9719 13.2927 21.9471 11.6784C20.9223 10.0641 19.4598 8.77736 17.7316 7.96948C16.0033 7.1616 14.0814 6.8662 12.1917 7.11805C10.302 7.3699 8.52324 8.15852 7.06464 9.39112C5.60605 10.6237 4.52828 12.2491 3.95814 14.0759C3.38799 15.9028 3.34919 17.8552 3.84628 19.7034C4.34337 21.5517 5.35568 23.2189 6.76413 24.509C8.17258 25.7991 9.91859 26.6584 11.7968 26.9858C12.2168 27.0596 12.4338 27.5658 12.173 27.905C9.07725 31.9545 7.05425 36.3959 7.05425 39.5736C7.05425 47.4545 14.1645 52.6183 19.4145 52.6183C23.3643 52.6183 25.137 51.9205 26.376 51.4319C27.041 51.17 27.552 50.9697 28.1645 50.9697C28.8347 50.9697 29.3598 51.2122 30.009 51.5092C31.0538 51.9908 32.4188 52.6165 35.2188 52.6165C40.1678 52.6165 48.9177 48.8817 48.9177 39.5736C48.9177 36.4363 47.0277 31.9457 44.03 27.854C43.785 27.5183 43.9932 27.028 44.401 26.9506C46.842 26.472 49.0182 25.0978 50.5056 23.0959C51.9929 21.094 52.685 18.6076 52.4469 16.1212C52.2088 13.6348 51.0576 11.3265 49.2176 9.64593C47.3776 7.96536 44.9806 7.03292 42.4935 7.03027C41.0556 7.03003 39.6346 7.3409 38.327 7.94174C37.0195 8.54257 35.8562 9.41927 34.9163 10.5122C33.9764 11.605 33.282 12.8885 32.8803 14.2751C32.4786 15.6617 32.3791 17.119 32.5885 18.5477C31.1711 18.0246 29.6745 17.7511 28.1645 17.7392C26.5807 17.7392 24.9707 18.1012 23.38 18.7357Z" fill="url(#paint9_radial_1_2335)"/>
<path d="M23.38 18.7357C23.4698 18.1967 23.5153 17.6454 23.5165 17.0819C23.5164 15.1674 22.9719 13.2927 21.9471 11.6784C20.9223 10.0641 19.4598 8.77736 17.7316 7.96948C16.0033 7.1616 14.0814 6.8662 12.1917 7.11805C10.302 7.3699 8.52324 8.15852 7.06464 9.39112C5.60605 10.6237 4.52828 12.2491 3.95814 14.0759C3.38799 15.9028 3.34919 17.8552 3.84628 19.7034C4.34337 21.5517 5.35568 23.2189 6.76413 24.509C8.17258 25.7991 9.91859 26.6584 11.7968 26.9858C12.2168 27.0596 12.4338 27.5658 12.173 27.905C9.07725 31.9545 7.05425 36.3959 7.05425 39.5736C7.05425 47.4545 14.1645 52.6183 19.4145 52.6183C23.3643 52.6183 25.137 51.9205 26.376 51.4319C27.041 51.17 27.552 50.9697 28.1645 50.9697C28.8347 50.9697 29.3598 51.2122 30.009 51.5092C31.0538 51.9908 32.4188 52.6165 35.2188 52.6165C40.1678 52.6165 48.9177 48.8817 48.9177 39.5736C48.9177 36.4363 47.0277 31.9457 44.03 27.854C43.785 27.5183 43.9932 27.028 44.401 26.9506C46.842 26.472 49.0182 25.0978 50.5056 23.0959C51.9929 21.094 52.685 18.6076 52.4469 16.1212C52.2088 13.6348 51.0576 11.3265 49.2176 9.64593C47.3776 7.96536 44.9806 7.03292 42.4935 7.03027C41.0556 7.03003 39.6346 7.3409 38.327 7.94174C37.0195 8.54257 35.8562 9.41927 34.9163 10.5122C33.9764 11.605 33.282 12.8885 32.8803 14.2751C32.4786 15.6617 32.3791 17.119 32.5885 18.5477C31.1711 18.0246 29.6745 17.7511 28.1645 17.7392C26.5807 17.7392 24.9707 18.1012 23.38 18.7357Z" fill="url(#paint10_radial_1_2335)"/>
<path d="M23.38 18.7357C23.4698 18.1967 23.5153 17.6454 23.5165 17.0819C23.5164 15.1674 22.9719 13.2927 21.9471 11.6784C20.9223 10.0641 19.4598 8.77736 17.7316 7.96948C16.0033 7.1616 14.0814 6.8662 12.1917 7.11805C10.302 7.3699 8.52324 8.15852 7.06464 9.39112C5.60605 10.6237 4.52828 12.2491 3.95814 14.0759C3.38799 15.9028 3.34919 17.8552 3.84628 19.7034C4.34337 21.5517 5.35568 23.2189 6.76413 24.509C8.17258 25.7991 9.91859 26.6584 11.7968 26.9858C12.2168 27.0596 12.4338 27.5658 12.173 27.905C9.07725 31.9545 7.05425 36.3959 7.05425 39.5736C7.05425 47.4545 14.1645 52.6183 19.4145 52.6183C23.3643 52.6183 25.137 51.9205 26.376 51.4319C27.041 51.17 27.552 50.9697 28.1645 50.9697C28.8347 50.9697 29.3598 51.2122 30.009 51.5092C31.0538 51.9908 32.4188 52.6165 35.2188 52.6165C40.1678 52.6165 48.9177 48.8817 48.9177 39.5736C48.9177 36.4363 47.0277 31.9457 44.03 27.854C43.785 27.5183 43.9932 27.028 44.401 26.9506C46.842 26.472 49.0182 25.0978 50.5056 23.0959C51.9929 21.094 52.685 18.6076 52.4469 16.1212C52.2088 13.6348 51.0576 11.3265 49.2176 9.64593C47.3776 7.96536 44.9806 7.03292 42.4935 7.03027C41.0556 7.03003 39.6346 7.3409 38.327 7.94174C37.0195 8.54257 35.8562 9.41927 34.9163 10.5122C33.9764 11.605 33.282 12.8885 32.8803 14.2751C32.4786 15.6617 32.3791 17.119 32.5885 18.5477C31.1711 18.0246 29.6745 17.7511 28.1645 17.7392C26.5807 17.7392 24.9707 18.1012 23.38 18.7357Z" fill="url(#paint11_radial_1_2335)"/>
<g filter="url(#filter0_f_1_2335)">
<path d="M28 43.7881C28.2256 43.7879 28.4425 43.8752 28.6055 44.0317C28.7685 44.1882 28.8651 44.4019 28.875 44.6282C28.882 44.7583 28.9905 45.2575 29.2775 45.6916C29.5435 46.0958 29.876 46.3296 30.3625 46.2891C30.9698 46.2417 31.2148 46.0255 31.325 45.8726C31.4447 45.6999 31.4988 45.4897 31.4773 45.2803C31.4531 45.0484 31.5217 44.8164 31.6679 44.6352C31.8141 44.4541 32.026 44.3388 32.2569 44.3145C32.4878 44.2903 32.7188 44.3592 32.8992 44.506C33.0795 44.6528 33.1944 44.8656 33.2185 45.0975C33.2848 45.7388 33.1148 46.3822 32.7408 46.9061C32.2858 47.5353 31.5385 47.9606 30.5025 48.0415C29.33 48.1364 28.5128 47.5652 28 46.9166C27.4873 47.5652 26.67 48.1364 25.4975 48.0415C24.4615 47.9588 23.7125 47.5353 23.2575 46.9061C22.8836 46.3814 22.7143 45.7374 22.7815 45.0958C22.8059 44.8639 22.921 44.6512 23.1015 44.5045C23.282 44.3578 23.5131 44.2892 23.744 44.3136C23.9749 44.3381 24.1867 44.4537 24.3327 44.635C24.4788 44.8163 24.5471 45.0484 24.5228 45.2803C24.5012 45.4897 24.5553 45.6999 24.675 45.8726C24.7853 46.0255 25.0303 46.2417 25.6375 46.2909C26.124 46.3296 26.4565 46.0976 26.7225 45.6933C26.9324 45.372 27.0697 45.0085 27.125 44.6282C27.1332 44.4013 27.2292 44.1866 27.3926 44.0297C27.556 43.8728 27.7739 43.7861 28 43.7881Z" fill="#CF6161"/>
</g>
<path d="M30.7756 39.7914C30.7756 40.6491 29.1481 42.7863 28.0141 42.7863C26.7996 42.7863 25.2246 40.8354 25.2246 39.7931C25.2246 38.7491 26.4549 38.6525 28.0141 38.6525C29.5716 38.6525 30.7756 38.7228 30.7756 39.7931" fill="url(#paint12_linear_1_2335)"/>
<path d="M30.7756 39.7914C30.7756 40.6491 29.1481 42.7863 28.0141 42.7863C26.7996 42.7863 25.2246 40.8354 25.2246 39.7931C25.2246 38.7491 26.4549 38.6525 28.0141 38.6525C29.5716 38.6525 30.7756 38.7228 30.7756 39.7931" fill="url(#paint13_radial_1_2335)"/>
<path d="M30.7756 39.7914C30.7756 40.6491 29.1481 42.7863 28.0141 42.7863C26.7996 42.7863 25.2246 40.8354 25.2246 39.7931C25.2246 38.7491 26.4549 38.6525 28.0141 38.6525C29.5716 38.6525 30.7756 38.7228 30.7756 39.7931" fill="url(#paint14_radial_1_2335)"/>
<path d="M22.2703 32.9123C22.2703 32.1921 21.689 31.6082 20.9718 31.6082C20.2547 31.6082 19.6733 32.1921 19.6733 32.9123V35.5768C19.6733 36.2971 20.2547 36.8809 20.9718 36.8809C21.689 36.8809 22.2703 36.2971 22.2703 35.5768V32.9123Z" fill="url(#paint15_linear_1_2335)"/>
<path d="M22.2703 32.9123C22.2703 32.1921 21.689 31.6082 20.9718 31.6082C20.2547 31.6082 19.6733 32.1921 19.6733 32.9123V35.5768C19.6733 36.2971 20.2547 36.8809 20.9718 36.8809C21.689 36.8809 22.2703 36.2971 22.2703 35.5768V32.9123Z" fill="url(#paint16_linear_1_2335)"/>
<path d="M22.2703 32.9123C22.2703 32.1921 21.689 31.6082 20.9718 31.6082C20.2547 31.6082 19.6733 32.1921 19.6733 32.9123V35.5768C19.6733 36.2971 20.2547 36.8809 20.9718 36.8809C21.689 36.8809 22.2703 36.2971 22.2703 35.5768V32.9123Z" fill="url(#paint17_radial_1_2335)"/>
<path d="M36.2703 32.9123C36.2703 32.1921 35.689 31.6082 34.9718 31.6082C34.2547 31.6082 33.6733 32.1921 33.6733 32.9123V35.5768C33.6733 36.2971 34.2547 36.8809 34.9718 36.8809C35.689 36.8809 36.2703 36.2971 36.2703 35.5768V32.9123Z" fill="url(#paint18_linear_1_2335)"/>
<path d="M36.2703 32.9123C36.2703 32.1921 35.689 31.6082 34.9718 31.6082C34.2547 31.6082 33.6733 32.1921 33.6733 32.9123V35.5768C33.6733 36.2971 34.2547 36.8809 34.9718 36.8809C35.689 36.8809 36.2703 36.2971 36.2703 35.5768V32.9123Z" fill="url(#paint19_linear_1_2335)"/>
<path d="M36.2703 32.9123C36.2703 32.1921 35.689 31.6082 34.9718 31.6082C34.2547 31.6082 33.6733 32.1921 33.6733 32.9123V35.5768C33.6733 36.2971 34.2547 36.8809 34.9718 36.8809C35.689 36.8809 36.2703 36.2971 36.2703 35.5768V32.9123Z" fill="url(#paint20_radial_1_2335)"/>
<g filter="url(#filter1_i_1_2335)">
<path d="M12.0033 24.4953C16.1486 24.4953 19.5091 21.1203 19.5091 16.9571C19.5091 12.7938 16.1486 9.41882 12.0033 9.41882C7.858 9.41882 4.49756 12.7938 4.49756 16.9571C4.49756 21.1203 7.858 24.4953 12.0033 24.4953Z" fill="url(#paint21_radial_1_2335)"/>
<path d="M12.0033 24.4953C16.1486 24.4953 19.5091 21.1203 19.5091 16.9571C19.5091 12.7938 16.1486 9.41882 12.0033 9.41882C7.858 9.41882 4.49756 12.7938 4.49756 16.9571C4.49756 21.1203 7.858 24.4953 12.0033 24.4953Z" fill="url(#paint22_radial_1_2335)"/>
</g>
<g filter="url(#filter2_i_1_2335)">
<path d="M43.9968 24.4953C48.1422 24.4953 51.5026 21.1203 51.5026 16.9571C51.5026 12.7938 48.1422 9.41882 43.9968 9.41882C39.8515 9.41882 36.4911 12.7938 36.4911 16.9571C36.4911 21.1203 39.8515 24.4953 43.9968 24.4953Z" fill="url(#paint23_radial_1_2335)"/>
<path d="M43.9968 24.4953C48.1422 24.4953 51.5026 21.1203 51.5026 16.9571C51.5026 12.7938 48.1422 9.41882 43.9968 9.41882C39.8515 9.41882 36.4911 12.7938 36.4911 16.9571C36.4911 21.1203 39.8515 24.4953 43.9968 24.4953Z" fill="url(#paint24_radial_1_2335)"/>
<path d="M43.9968 24.4953C48.1422 24.4953 51.5026 21.1203 51.5026 16.9571C51.5026 12.7938 48.1422 9.41882 43.9968 9.41882C39.8515 9.41882 36.4911 12.7938 36.4911 16.9571C36.4911 21.1203 39.8515 24.4953 43.9968 24.4953Z" fill="url(#paint25_radial_1_2335)"/>
</g>
<g filter="url(#filter3_f_1_2335)">
<path d="M46.9532 41.2914C48.9648 39.9124 47.6555 34.4686 44.0288 29.1323C40.402 23.7961 35.8312 20.5882 33.8196 21.9672C31.808 23.3463 33.1173 28.7901 36.7441 34.1263C40.3708 39.4626 44.9416 42.6705 46.9532 41.2914Z" fill="url(#paint26_radial_1_2335)"/>
</g>
<g filter="url(#filter4_f_1_2335)">
<path d="M42.8472 27.2969C42.0457 26.5288 39.0969 24.0682 36.9969 22.5743" stroke="url(#paint27_linear_1_2335)" stroke-width="0.1"/>
</g>
<g filter="url(#filter5_f_1_2335)">
<path d="M15.3667 25.8152C17.7187 24.2756 21.2992 20.9256 22.3947 19.553" stroke="url(#paint28_linear_1_2335)" stroke-width="0.1"/>
</g>
<path d="M23.6529 44.7901C23.5794 45.4861 23.9259 46.6355 25.5657 46.7673C27.3804 46.9132 27.9719 44.8182 27.9999 44.2681" stroke="url(#paint29_radial_1_2335)" stroke-width="0.5" stroke-linecap="round"/>
<path d="M23.6529 44.7901C23.5794 45.4861 23.9259 46.6355 25.5657 46.7673C27.3804 46.9132 27.9719 44.8182 27.9999 44.2681" stroke="url(#paint30_radial_1_2335)" stroke-width="0.5" stroke-linecap="round"/>
<path d="M32.347 44.7901C32.4205 45.4861 32.074 46.6355 30.4343 46.7673C28.6195 46.9132 28.028 44.8182 28 44.2681" stroke="url(#paint31_radial_1_2335)" stroke-width="0.5" stroke-linecap="round"/>
<path d="M32.347 44.7901C32.4205 45.4861 32.074 46.6355 30.4343 46.7673C28.6195 46.9132 28.028 44.8182 28 44.2681" stroke="url(#paint32_radial_1_2335)" stroke-width="0.5" stroke-linecap="round"/>
<path fill-rule="evenodd" clip-rule="evenodd" d="M27.9998 43.391C28.2251 43.3908 28.4418 43.4778 28.6048 43.634C28.7677 43.7901 28.8645 44.0034 28.8748 44.2294C28.8818 44.3595 28.9903 44.8604 29.2773 45.2945C29.5433 45.6987 29.8759 45.9307 30.3623 45.8921C30.9696 45.8429 31.2146 45.6267 31.3248 45.4738C31.4442 45.3015 31.4982 45.092 31.4771 44.8832C31.4527 44.6513 31.5211 44.4192 31.6671 44.2379C31.8132 44.0566 32.0249 43.941 32.2558 43.9166C32.4868 43.8921 32.7179 43.9607 32.8984 44.1074C33.0789 44.2541 33.194 44.4668 33.2184 44.6987C33.2709 45.2189 33.1746 45.9079 32.7406 46.5072C32.2856 47.1364 31.5384 47.5618 30.5023 47.6444C29.3298 47.7375 28.5126 47.1663 27.9998 46.5178C27.4871 47.1663 26.6698 47.7393 25.4973 47.6426C24.4613 47.5618 23.7123 47.1364 23.2573 46.5072C22.8839 45.9831 22.7146 45.3397 22.7813 44.6987C22.8057 44.4668 22.9208 44.2541 23.1013 44.1074C23.2818 43.9607 23.5129 43.8921 23.7438 43.9166C23.9748 43.941 24.1865 44.0566 24.3326 44.2379C24.4786 44.4192 24.547 44.6513 24.5226 44.8832C24.5011 45.0926 24.5551 45.3028 24.6748 45.4755C24.7851 45.6267 25.0301 45.8446 25.6373 45.8921C26.1238 45.9307 26.4564 45.6987 26.7224 45.2945C26.9322 44.9732 27.0696 44.6097 27.1248 44.2294C27.1353 44.0083 27.2284 43.7993 27.3856 43.6441C27.549 43.4814 27.7697 43.3915 27.9998 43.391Z" fill="url(#paint33_radial_1_2335)"/>
</g>
<defs>
<filter id="filter0_f_1_2335" x="22.5171" y="43.5381" width="10.9655" height="4.76373" filterUnits="userSpaceOnUse" color-interpolation-filters="sRGB">
<feFlood flood-opacity="0" result="BackgroundImageFix"/>
<feBlend mode="normal" in="SourceGraphic" in2="BackgroundImageFix" result="shape"/>
<feGaussianBlur stdDeviation="0.125" result="effect1_foregroundBlur_1_2335"/>
</filter>
<filter id="filter1_i_1_2335" x="4.49756" y="9.41882" width="15.1115" height="15.2265" filterUnits="userSpaceOnUse" color-interpolation-filters="sRGB">
<feFlood flood-opacity="0" result="BackgroundImageFix"/>
<feBlend mode="normal" in="SourceGraphic" in2="BackgroundImageFix" result="shape"/>
<feColorMatrix in="SourceAlpha" type="matrix" values="0 0 0 0 0 0 0 0 0 0 0 0 0 0 0 0 0 0 127 0" result="hardAlpha"/>
<feOffset dx="0.1" dy="0.15"/>
<feGaussianBlur stdDeviation="0.125"/>
<feComposite in2="hardAlpha" operator="arithmetic" k2="-1" k3="1"/>
<feColorMatrix type="matrix" values="0 0 0 0 0.913725 0 0 0 0 0.411765 0 0 0 0 0.501961 0 0 0 0.5 0"/>
<feBlend mode="normal" in2="shape" result="effect1_innerShadow_1_2335"/>
</filter>
<filter id="filter2_i_1_2335" x="36.4161" y="9.41882" width="15.0865" height="15.1515" filterUnits="userSpaceOnUse" color-interpolation-filters="sRGB">
<feFlood flood-opacity="0" result="BackgroundImageFix"/>
<feBlend mode="normal" in="SourceGraphic" in2="BackgroundImageFix" result="shape"/>
<feColorMatrix in="SourceAlpha" type="matrix" values="0 0 0 0 0 0 0 0 0 0 0 0 0 0 0 0 0 0 127 0" result="hardAlpha"/>
<feOffset dx="-0.075" dy="0.075"/>
<feGaussianBlur stdDeviation="0.125"/>
<feComposite in2="hardAlpha" operator="arithmetic" k2="-1" k3="1"/>
<feColorMatrix type="matrix" values="0 0 0 0 0.9125 0 0 0 0 0.410625 0 0 0 0 0.502237 0 0 0 0.5 0"/>
<feBlend mode="normal" in2="shape" result="effect1_innerShadow_1_2335"/>
</filter>
<filter id="filter3_f_1_2335" x="32.1257" y="20.8974" width="16.5214" height="21.4639" filterUnits="userSpaceOnUse" color-interpolation-filters="sRGB">
<feFlood flood-opacity="0" result="BackgroundImageFix"/>
<feBlend mode="normal" in="SourceGraphic" in2="BackgroundImageFix" result="shape"/>
<feGaussianBlur stdDeviation="0.375" result="effect1_foregroundBlur_1_2335"/>
</filter>
<filter id="filter4_f_1_2335" x="36.768" y="22.3335" width="6.31382" height="5.1995" filterUnits="userSpaceOnUse" color-interpolation-filters="sRGB">
<feFlood flood-opacity="0" result="BackgroundImageFix"/>
<feBlend mode="normal" in="SourceGraphic" in2="BackgroundImageFix" result="shape"/>
<feGaussianBlur stdDeviation="0.1" result="effect1_foregroundBlur_1_2335"/>
</filter>
<filter id="filter5_f_1_2335" x="15.1394" y="19.3218" width="7.49448" height="6.73527" filterUnits="userSpaceOnUse" color-interpolation-filters="sRGB">
<feFlood flood-opacity="0" result="BackgroundImageFix"/>
<feBlend mode="normal" in="SourceGraphic" in2="BackgroundImageFix" result="shape"/>
<feGaussianBlur stdDeviation="0.1" result="effect1_foregroundBlur_1_2335"/>
</filter>
<linearGradient id="paint0_linear_1_2335" x1="28" y1="7.03027" x2="28" y2="52.6183" gradientUnits="userSpaceOnUse">
<stop stop-color="#FEBD86"/>
<stop offset="1" stop-color="#FBA27F"/>
</linearGradient>
<radialGradient id="paint1_radial_1_2335" cx="0" cy="0" r="1" gradientTransform="matrix(6.34375 3.8447 -10.8424 18.0451 6.67275 33.8333)" gradientUnits="userSpaceOnUse">
<stop stop-color="#B9886A"/>
<stop offset="1" stop-color="#B9886A" stop-opacity="0"/>
</radialGradient>
<radialGradient id="paint2_radial_1_2335" cx="0" cy="0" r="1" gradientTransform="matrix(5.6875 5.38258 -8.33518 8.88377 35 8.78785)" gradientUnits="userSpaceOnUse">
<stop stop-color="#D09F75"/>
<stop offset="1" stop-color="#CB976A" stop-opacity="0"/>
</radialGradient>
<radialGradient id="paint3_radial_1_2335" cx="0" cy="0" r="1" gradientTransform="matrix(13.0156 1.09848 -1.81169 21.6524 3.5 16.4772)" gradientUnits="userSpaceOnUse">
<stop stop-color="#D09F75"/>
<stop offset="1" stop-color="#CB976A" stop-opacity="0"/>
</radialGradient>
<radialGradient id="paint4_radial_1_2335" cx="0" cy="0" r="1" gradientTransform="matrix(-8.20316 7.03027 -6.01346 -7.07758 51.8438 12.6334)" gradientUnits="userSpaceOnUse">
<stop stop-color="#FFDAAE"/>
<stop offset="1" stop-color="#FFDAAE" stop-opacity="0"/>
</radialGradient>
<radialGradient id="paint5_radial_1_2335" cx="0" cy="0" r="1" gradientTransform="matrix(-6.89061 3.84475 -5.50492 -9.9516 22.3125 9.88633)" gradientUnits="userSpaceOnUse">
<stop offset="0.147" stop-color="#FFDAAE"/>
<stop offset="1" stop-color="#FFDAAE" stop-opacity="0"/>
</radialGradient>
<radialGradient id="paint6_radial_1_2335" cx="0" cy="0" r="1" gradientTransform="matrix(-9.1875 -9.33712 5.28868 -5.24911 49.2188 27.5728)" gradientUnits="userSpaceOnUse">
<stop stop-color="#F8A583"/>
<stop offset="1" stop-color="#F8A583" stop-opacity="0"/>
</radialGradient>
<radialGradient id="paint7_radial_1_2335" cx="0" cy="0" r="1" gradientTransform="matrix(10.2812 -1.86742 1.23734 6.87137 5.79775 27.0227)" gradientUnits="userSpaceOnUse">
<stop stop-color="#D48670"/>
<stop offset="1" stop-color="#D48670" stop-opacity="0"/>
</radialGradient>
<radialGradient id="paint8_radial_1_2335" cx="0" cy="0" r="1" gradientTransform="matrix(12.1406 -11.6439 31.3322 32.9522 4.8125 45.8077)" gradientUnits="userSpaceOnUse">
<stop stop-color="#D48670"/>
<stop offset="1" stop-color="#D48670" stop-opacity="0"/>
</radialGradient>
<radialGradient id="paint9_radial_1_2335" cx="0" cy="0" r="1" gradientUnits="userSpaceOnUse" gradientTransform="translate(28 53.3863) rotate(-90) scale(13.8409 25.375)">
<stop stop-color="#C8656A"/>
<stop offset="1" stop-color="#C8656A" stop-opacity="0"/>
</radialGradient>
<radialGradient id="paint10_radial_1_2335" cx="0" cy="0" r="1" gradientTransform="matrix(0.21875 -5.60227 14.8821 0.586152 23.2977 55.3636)" gradientUnits="userSpaceOnUse">
<stop stop-color="#C8656A"/>
<stop offset="1" stop-color="#C8656A" stop-opacity="0"/>
</radialGradient>
<radialGradient id="paint11_radial_1_2335" cx="0" cy="0" r="1" gradientTransform="matrix(-0.328178 -5.60227 14.8821 -0.87935 37.8437 55.3636)" gradientUnits="userSpaceOnUse">
<stop stop-color="#C8656A"/>
<stop offset="1" stop-color="#C8656A" stop-opacity="0"/>
</radialGradient>
<linearGradient id="paint12_linear_1_2335" x1="26.3044" y1="39.1059" x2="28.9985" y2="42.1701" gradientUnits="userSpaceOnUse">
<stop stop-color="#F03273"/>
<stop offset="1" stop-color="#FF32AF"/>
</linearGradient>
<radialGradient id="paint13_radial_1_2335" cx="0" cy="0" r="1" gradientTransform="matrix(-4.40234 -0.631619 0.607693 -4.27232 29.3401 40.1209)" gradientUnits="userSpaceOnUse">
<stop offset="0.452" stop-color="#D53238" stop-opacity="0"/>
<stop offset="1" stop-color="#D53238"/>
</radialGradient>
<radialGradient id="paint14_radial_1_2335" cx="0" cy="0" r="1" gradientTransform="matrix(-2.33788 1.27015 -0.74284 -1.37917 30.3381 39.4486)" gradientUnits="userSpaceOnUse">
<stop stop-color="#FF8AD5"/>
<stop offset="0.663" stop-color="#FF6CCB" stop-opacity="0"/>
</radialGradient>
<linearGradient id="paint15_linear_1_2335" x1="22.2721" y1="34.2446" x2="20.7671" y2="34.2446" gradientUnits="userSpaceOnUse">
<stop offset="0.225" stop-color="#594C4F"/>
<stop offset="1" stop-color="#392833"/>
</linearGradient>
<linearGradient id="paint16_linear_1_2335" x1="22.6781" y1="36.9583" x2="22.6781" y2="34.4819" gradientUnits="userSpaceOnUse">
<stop stop-color="#552D52"/>
<stop offset="1" stop-color="#552D52" stop-opacity="0"/>
</linearGradient>
<radialGradient id="paint17_radial_1_2335" cx="0" cy="0" r="1" gradientTransform="matrix(-1.00205 -2.87423 2.75938 -0.970358 21.4776 34.5609)" gradientUnits="userSpaceOnUse">
<stop offset="0.814" stop-color="#594C4F" stop-opacity="0"/>
<stop offset="1" stop-color="#594C4F"/>
</radialGradient>
<linearGradient id="paint18_linear_1_2335" x1="36.2721" y1="34.2446" x2="34.7671" y2="34.2446" gradientUnits="userSpaceOnUse">
<stop offset="0.225" stop-color="#594C4F"/>
<stop offset="1" stop-color="#392833"/>
</linearGradient>
<linearGradient id="paint19_linear_1_2335" x1="36.6781" y1="36.9583" x2="36.6781" y2="34.4819" gradientUnits="userSpaceOnUse">
<stop stop-color="#552D52"/>
<stop offset="1" stop-color="#552D52" stop-opacity="0"/>
</linearGradient>
<radialGradient id="paint20_radial_1_2335" cx="0" cy="0" r="1" gradientTransform="matrix(-1.00205 -2.87423 2.75938 -0.970358 35.4776 34.5609)" gradientUnits="userSpaceOnUse">
<stop offset="0.814" stop-color="#594C4F" stop-opacity="0"/>
<stop offset="1" stop-color="#594C4F"/>
</radialGradient>
<radialGradient id="paint21_radial_1_2335" cx="0" cy="0" r="1" gradientTransform="matrix(-11.5254 -3.84477 5.66223 -17.1209 19.5091 19.1136)" gradientUnits="userSpaceOnUse">
<stop stop-color="#FD9988"/>
<stop offset="1" stop-color="#FF8199"/>
</radialGradient>
<radialGradient id="paint22_radial_1_2335" cx="0" cy="0" r="1" gradientTransform="matrix(6.34375 -10.2159 10.4538 6.54781 8.42106 26.0349)" gradientUnits="userSpaceOnUse">
<stop stop-color="#FFCFB5"/>
<stop offset="0.867" stop-color="#FFCFB5" stop-opacity="0"/>
</radialGradient>
<radialGradient id="paint23_radial_1_2335" cx="0" cy="0" r="1" gradientTransform="matrix(7.98438 -7.79924 11.4861 11.8607 38.7188 21.8607)" gradientUnits="userSpaceOnUse">
<stop stop-color="#FFAD98"/>
<stop offset="1" stop-color="#FF8199"/>
</radialGradient>
<radialGradient id="paint24_radial_1_2335" cx="0" cy="0" r="1" gradientTransform="matrix(12.9062 -12.4128 12.0612 12.6494 37.2975 25.7042)" gradientUnits="userSpaceOnUse">
<stop stop-color="#FFCFB5"/>
<stop offset="0.867" stop-color="#FFCFB5" stop-opacity="0"/>
</radialGradient>
<radialGradient id="paint25_radial_1_2335" cx="0" cy="0" r="1" gradientTransform="matrix(8.96875 -8.01894 13.3743 15.0882 39.5938 22.0804)" gradientUnits="userSpaceOnUse">
<stop stop-color="#FFCFB5"/>
<stop offset="0.24" stop-color="#FFCFB5" stop-opacity="0"/>
</radialGradient>
<radialGradient id="paint26_radial_1_2335" cx="0" cy="0" r="1" gradientTransform="matrix(-8.49947 4.44711 -12.8755 -24.8216 45.9373 31.6288)" gradientUnits="userSpaceOnUse">
<stop offset="0.11" stop-color="#FFDA9F"/>
<stop offset="1" stop-color="#FFDA9F" stop-opacity="0"/>
</radialGradient>
<linearGradient id="paint27_linear_1_2335" x1="39.4574" y1="22.272" x2="39.4574" y2="26.9946" gradientUnits="userSpaceOnUse">
<stop stop-color="#FFCE9D" stop-opacity="0"/>
<stop offset="0.208" stop-color="#FFD6AC"/>
<stop offset="0.755" stop-color="#FFD9B4"/>
<stop offset="1" stop-color="#FFCE9D" stop-opacity="0"/>
</linearGradient>
<linearGradient id="paint28_linear_1_2335" x1="23.1349" y1="21.7869" x2="18.4533" y2="21.339" gradientUnits="userSpaceOnUse">
<stop stop-color="#FFCE9D" stop-opacity="0"/>
<stop offset="0.208" stop-color="#FFD6AC"/>
<stop offset="0.755" stop-color="#FFD9B4"/>
<stop offset="1" stop-color="#FFCE9D" stop-opacity="0"/>
</linearGradient>
<radialGradient id="paint29_radial_1_2335" cx="0" cy="0" r="1" gradientTransform="matrix(-0.6244 2.49904 -2.94691 -0.742698 25.8212 44.8727)" gradientUnits="userSpaceOnUse">
<stop offset="0.55" stop-color="#4A2D2A"/>
<stop offset="0.725" stop-color="#625358"/>
<stop offset="1" stop-color="#4C2E4C"/>
</radialGradient>
<radialGradient id="paint30_radial_1_2335" cx="0" cy="0" r="1" gradientTransform="matrix(1.18946 2.11457 -2.43401 1.381 23.5024 44.4755)" gradientUnits="userSpaceOnUse">
<stop stop-color="#492F30"/>
<stop offset="1" stop-color="#492F30" stop-opacity="0"/>
</radialGradient>
<radialGradient id="paint31_radial_1_2335" cx="0" cy="0" r="1" gradientTransform="matrix(0.642582 3.30916 -2.76006 0.540595 30.2837 44.1995)" gradientUnits="userSpaceOnUse">
<stop offset="0.55" stop-color="#4A2D2A"/>
<stop offset="0.725" stop-color="#625358"/>
<stop offset="1" stop-color="#4C2E4C"/>
</radialGradient>
<radialGradient id="paint32_radial_1_2335" cx="0" cy="0" r="1" gradientTransform="matrix(-1.18947 2.11457 -2.43399 -1.38102 32.4972 44.4747)" gradientUnits="userSpaceOnUse">
<stop stop-color="#492F30"/>
<stop offset="1" stop-color="#492F30" stop-opacity="0"/>
</radialGradient>
<radialGradient id="paint33_radial_1_2335" cx="0" cy="0" r="1" gradientTransform="matrix(-0.136693 2.74621 -2.78387 -0.13978 28.1363 44.3507)" gradientUnits="userSpaceOnUse">
<stop stop-color="#492F30"/>
<stop offset="1" stop-color="#492F30" stop-opacity="0"/>
</radialGradient>
</defs>
</svg>
