<svg width="20" height="20" viewBox="0 0 20 20" fill="none" xmlns="http://www.w3.org/2000/svg">
<g clip-path="url(#clip0_620_11525)">
<path d="M10 20C15.5228 20 20 15.5228 20 10C20 4.47715 15.5228 0 10 0C4.47715 0 0 4.47715 0 10C0 15.5228 4.47715 20 10 20Z" fill="#FEE500"/>
<path d="M10.0284 4.82617C6.91724 4.82617 4.4082 6.83338 4.4082 9.27016C4.4082 10.8519 5.45196 12.2369 7.0176 13.0277L6.48769 15.0069C6.4777 15.0365 6.47617 15.0684 6.48326 15.0988C6.49035 15.1293 6.50578 15.1573 6.52784 15.1795C6.56 15.2078 6.60138 15.2235 6.64426 15.2236C6.67981 15.2208 6.71354 15.2067 6.7406 15.1835L9.02082 13.646C9.35741 13.6924 9.6967 13.7165 10.0365 13.7182C13.1437 13.7182 15.6567 11.711 15.6567 9.27016C15.6567 6.82937 13.1356 4.82617 10.0284 4.82617Z" fill="#392020"/>
<path d="M6.37553 8.56786H5.76131C5.68519 8.57007 5.61 8.55057 5.54453 8.51165C5.51547 8.49344 5.49048 8.46941 5.47114 8.44108C5.45179 8.41276 5.43851 8.38074 5.43213 8.34704C5.43018 8.32568 5.43018 8.30421 5.43213 8.28285C5.43022 8.24287 5.43798 8.203 5.45475 8.16666C5.47153 8.13032 5.49681 8.09857 5.52847 8.07409C5.59846 8.0234 5.68294 7.99662 5.76934 7.99779H7.62001C7.69674 7.99509 7.77244 8.01613 7.83679 8.05801C7.86654 8.07542 7.89206 8.09923 7.9115 8.1277C7.93093 8.15616 7.94381 8.18858 7.9492 8.22262C7.95116 8.24264 7.95116 8.26282 7.9492 8.28285C7.95109 8.3234 7.94335 8.36382 7.9266 8.4008C7.90985 8.43779 7.88458 8.47025 7.85285 8.49558C7.78457 8.5462 7.70091 8.57175 7.61599 8.56786H7.02186V10.6795C7.02427 10.7244 7.01731 10.7694 7.00141 10.8116C6.98552 10.8537 6.96104 10.8921 6.92952 10.9243C6.8993 10.9551 6.86298 10.9792 6.82287 10.9951C6.78277 11.011 6.73979 11.0184 6.69668 11.0167C6.62129 11.0188 6.54749 10.9947 6.48793 10.9484C6.43122 10.9032 6.39274 10.8391 6.37954 10.7678C6.37557 10.7385 6.37557 10.7088 6.37954 10.6795L6.37553 8.56786Z" fill="#FEE500"/>
<path d="M8.12598 8.1542C8.14364 8.08814 8.1851 8.03093 8.2424 7.99361C8.30345 7.95901 8.37302 7.94231 8.44312 7.94544H8.59567C8.67006 7.94277 8.74373 7.96084 8.80844 7.99763C8.87701 8.04374 8.92574 8.11396 8.94493 8.19433L9.74782 10.4625C9.76864 10.5217 9.78606 10.582 9.80001 10.6432C9.80138 10.6686 9.80138 10.694 9.80001 10.7194C9.80137 10.7586 9.79417 10.7975 9.77891 10.8336C9.76366 10.8696 9.74072 10.9019 9.71169 10.9282C9.68357 10.957 9.6498 10.9798 9.6125 10.995C9.57521 11.0101 9.53517 11.0175 9.49491 11.0165C9.43299 11.0227 9.37081 11.0078 9.31837 10.9743C9.26594 10.9408 9.22631 10.8906 9.20587 10.8319L9.03726 10.3381H7.98146L7.81285 10.8319C7.79291 10.8918 7.7528 10.943 7.69936 10.9766C7.64593 11.0103 7.58247 11.0244 7.5198 11.0165C7.45191 11.0183 7.38542 10.9971 7.33112 10.9563C7.27821 10.9142 7.24251 10.8543 7.23075 10.7877C7.22862 10.765 7.22862 10.7421 7.23075 10.7194C7.22386 10.6796 7.22386 10.6389 7.23075 10.599C7.23075 10.5549 7.25886 10.5067 7.27491 10.4625L8.12598 8.1542ZM8.52743 8.68012L8.14605 9.88446H8.90478L8.52743 8.68012Z" fill="#FEE500"/>
<path d="M9.89293 8.28266C9.88885 8.19256 9.9206 8.10453 9.98124 8.03778C10.0121 8.00668 10.0491 7.98238 10.0899 7.96648C10.1307 7.95057 10.1744 7.94338 10.2181 7.9454C10.2933 7.94453 10.3667 7.96854 10.4269 8.01367C10.4826 8.06076 10.5197 8.12626 10.5312 8.19832C10.5352 8.22628 10.5352 8.25469 10.5312 8.28266V10.3943H11.6352C11.7117 10.3933 11.787 10.4141 11.852 10.4545C11.8812 10.4725 11.9063 10.4965 11.9257 10.5248C11.9451 10.5532 11.9583 10.5853 11.9644 10.6191C11.9644 10.6191 11.9644 10.6592 11.9644 10.6793C11.9663 10.7193 11.9585 10.7591 11.9418 10.7954C11.925 10.8318 11.8997 10.8636 11.8681 10.8881C11.7981 10.9387 11.7136 10.9655 11.6272 10.9643H10.2703C10.1839 10.9699 10.098 10.9474 10.0254 10.9001C9.9605 10.8516 9.91725 10.7795 9.90497 10.6994C9.90203 10.6553 9.90203 10.611 9.90497 10.5669L9.89293 8.28266Z" fill="#FEE500"/>
<path d="M12.0358 8.28286C12.0334 8.19303 12.0649 8.1056 12.1241 8.03798C12.1843 7.98331 12.2615 7.95102 12.3427 7.94663C12.4238 7.94225 12.504 7.966 12.5697 8.01387C12.6267 8.06055 12.6652 8.12602 12.6781 8.19852C12.6801 8.22659 12.6801 8.25479 12.6781 8.28286V9.26638L13.6938 8.09414C13.7329 8.05415 13.7745 8.01665 13.8182 7.98177C13.8595 7.95722 13.9068 7.94467 13.9547 7.94561C14.0249 7.94522 14.0935 7.96624 14.1514 8.00583C14.1787 8.02421 14.202 8.04793 14.22 8.07552C14.2379 8.10311 14.2501 8.13402 14.2558 8.16642C14.2574 8.17437 14.2574 8.18258 14.2558 8.19053C14.2539 8.1998 14.2539 8.20935 14.2558 8.21861C14.2557 8.26085 14.2446 8.30236 14.2237 8.33906C14.2024 8.37793 14.1768 8.41424 14.1474 8.44741L13.481 9.17807L14.2839 10.4225V10.4627C14.3256 10.5202 14.3581 10.5839 14.3803 10.6514V10.6714C14.3849 10.718 14.3782 10.7649 14.3607 10.8083C14.3432 10.8516 14.3155 10.8901 14.2799 10.9203C14.2129 10.971 14.131 10.9978 14.0471 10.9966C13.9913 10.9989 13.9359 10.9864 13.8865 10.9605C13.833 10.9246 13.789 10.8764 13.758 10.82L13.0113 9.61564L12.654 9.989V10.6594C12.6564 10.7492 12.6249 10.8366 12.5657 10.9043C12.534 10.9353 12.4963 10.9595 12.4548 10.9754C12.4134 10.9912 12.3692 10.9985 12.3249 10.9966C12.2508 10.9982 12.1785 10.9741 12.1201 10.9284C12.0634 10.8832 12.0249 10.819 12.0117 10.7477C12.0078 10.7184 12.0078 10.6887 12.0117 10.6594L12.0358 8.28286Z" fill="#FEE500"/>
</g>
<defs>
<clipPath id="clip0_620_11525">
<rect width="20" height="20" fill="white"/>
</clipPath>
</defs>
</svg>
